<svg width="106" height="159" viewBox="0 0 106 159" fill="none" xmlns="http://www.w3.org/2000/svg">
<path d="M3.01804 145.288C3.24365 145.288 3.45216 145.242 3.64359 145.149C3.83501 145.057 3.99225 144.93 4.11531 144.77C4.23837 144.606 4.30844 144.419 4.32553 144.211H5.22796C5.21087 144.539 5.09977 144.845 4.89467 145.129C4.693 145.409 4.42808 145.636 4.09993 145.811C3.77177 145.982 3.41114 146.067 3.01804 146.067C2.60101 146.067 2.23697 145.994 1.9259 145.847C1.61826 145.7 1.36189 145.498 1.15679 145.242C0.955114 144.985 0.803001 144.691 0.700453 144.36C0.601323 144.025 0.551758 143.671 0.551758 143.298V143.083C0.551758 142.71 0.601323 142.358 0.700453 142.027C0.803001 141.692 0.955114 141.396 1.15679 141.14C1.36189 140.883 1.61826 140.682 1.9259 140.535C2.23697 140.388 2.60101 140.314 3.01804 140.314C3.45216 140.314 3.83159 140.403 4.15633 140.581C4.48106 140.755 4.73572 140.994 4.92031 141.299C5.10832 141.599 5.21087 141.941 5.22796 142.324H4.32553C4.30844 142.095 4.24349 141.888 4.13069 141.704C4.02131 141.519 3.8709 141.372 3.67948 141.263C3.49147 141.15 3.27099 141.093 3.01804 141.093C2.72749 141.093 2.48308 141.152 2.28482 141.268C2.08998 141.381 1.93445 141.534 1.81823 141.729C1.70543 141.921 1.62339 142.134 1.57211 142.37C1.52426 142.603 1.50033 142.84 1.50033 143.083V143.298C1.50033 143.541 1.52426 143.78 1.57211 144.016C1.61997 144.252 1.7003 144.466 1.8131 144.657C1.92932 144.848 2.08485 145.002 2.2797 145.118C2.47796 145.231 2.72407 145.288 3.01804 145.288Z" fill="#0066BB"/>
<path d="M9.99132 140.417V141.201H7.18663V140.417H9.99132ZM7.32507 140.417V145.964H6.3765V140.417H7.32507ZM10.8322 140.417V145.964H9.87852V140.417H10.8322Z" fill="#0066BB"/>
<path d="M14.6573 146.067C14.271 146.067 13.9206 146.002 13.6061 145.872C13.2951 145.739 13.0267 145.553 12.8011 145.313C12.579 145.074 12.408 144.79 12.2884 144.462C12.1688 144.134 12.1089 143.775 12.1089 143.385V143.17C12.1089 142.719 12.1756 142.317 12.3089 141.965C12.4422 141.61 12.6234 141.309 12.8524 141.063C13.0814 140.817 13.3412 140.63 13.6318 140.504C13.9223 140.377 14.2231 140.314 14.5342 140.314C14.9307 140.314 15.2726 140.382 15.5597 140.519C15.8502 140.656 16.0878 140.847 16.2724 141.093C16.457 141.336 16.5937 141.623 16.6826 141.955C16.7715 142.283 16.8159 142.642 16.8159 143.032V143.457H12.673V142.683H15.8673V142.611C15.8537 142.365 15.8024 142.126 15.7135 141.893C15.6281 141.661 15.4913 141.469 15.3033 141.319C15.1153 141.169 14.8589 141.093 14.5342 141.093C14.3189 141.093 14.1206 141.14 13.9394 141.232C13.7583 141.321 13.6027 141.454 13.4728 141.632C13.3429 141.81 13.2421 142.027 13.1703 142.283C13.0985 142.539 13.0626 142.835 13.0626 143.17V143.385C13.0626 143.649 13.0985 143.896 13.1703 144.129C13.2455 144.358 13.3532 144.56 13.4933 144.734C13.6369 144.908 13.8095 145.045 14.0112 145.144C14.2163 145.243 14.4488 145.293 14.7085 145.293C15.0435 145.293 15.3272 145.224 15.5597 145.088C15.7921 144.951 15.9955 144.768 16.1699 144.539L16.7441 144.995C16.6245 145.177 16.4724 145.349 16.2878 145.513C16.1032 145.677 15.8759 145.811 15.6058 145.913C15.3392 146.016 15.023 146.067 14.6573 146.067Z" fill="#0066BB"/>
<path d="M18.0055 145.964V140.417H18.954V145.185H21.5075V140.417H22.4612V145.964H18.0055ZM23.1175 145.185L23.0252 147.61H22.1792V145.964H21.4562V145.185H23.1175Z" fill="#0066BB"/>
<path d="M25.1736 144.462L27.7322 140.417H28.6859V145.964H27.7322V141.919L25.1736 145.964H24.2301V140.417H25.1736V144.462Z" fill="#0066BB"/>
<path d="M33.48 145.016V142.16C33.48 141.941 33.4356 141.751 33.3467 141.591C33.2612 141.427 33.1313 141.3 32.957 141.211C32.7827 141.123 32.5673 141.078 32.3109 141.078C32.0717 141.078 31.8614 141.119 31.6803 141.201C31.5025 141.283 31.3624 141.391 31.2598 141.524C31.1607 141.657 31.1111 141.801 31.1111 141.955H30.1626C30.1626 141.757 30.2138 141.56 30.3164 141.365C30.4189 141.17 30.5659 140.994 30.7573 140.837C30.9522 140.676 31.1846 140.55 31.4547 140.458C31.7281 140.362 32.0324 140.314 32.3673 140.314C32.7707 140.314 33.1262 140.382 33.4338 140.519C33.7449 140.656 33.9876 140.863 34.1619 141.14C34.3397 141.413 34.4286 141.757 34.4286 142.17V144.754C34.4286 144.939 34.4439 145.136 34.4747 145.344C34.5089 145.553 34.5585 145.732 34.6234 145.882V145.964H33.6338C33.586 145.855 33.5484 145.71 33.521 145.529C33.4937 145.344 33.48 145.173 33.48 145.016ZM33.6441 142.601L33.6543 143.267H32.6955C32.4255 143.267 32.1845 143.29 31.9725 143.334C31.7606 143.375 31.5828 143.438 31.4393 143.524C31.2957 143.609 31.1863 143.717 31.1111 143.847C31.0359 143.973 30.9983 144.122 30.9983 144.293C30.9983 144.467 31.0376 144.626 31.1163 144.77C31.1949 144.913 31.3128 145.028 31.47 145.113C31.6307 145.195 31.8273 145.236 32.0597 145.236C32.3503 145.236 32.6066 145.175 32.8288 145.052C33.051 144.929 33.227 144.778 33.3569 144.601C33.4902 144.423 33.562 144.25 33.5723 144.083L33.9773 144.539C33.9534 144.683 33.8885 144.842 33.7825 145.016C33.6765 145.19 33.5347 145.358 33.3569 145.518C33.1826 145.676 32.9741 145.807 32.7314 145.913C32.4921 146.016 32.2221 146.067 31.9213 146.067C31.5452 146.067 31.2154 145.994 30.9317 145.847C30.6514 145.7 30.4326 145.503 30.2754 145.257C30.1215 145.007 30.0446 144.729 30.0446 144.421C30.0446 144.124 30.1027 143.862 30.219 143.637C30.3352 143.408 30.5027 143.218 30.7214 143.067C30.9402 142.914 31.2034 142.797 31.5111 142.719C31.8187 142.64 32.1622 142.601 32.5417 142.601H33.6441Z" fill="#0066BB"/>
<path d="M39.6278 140.417V141.201H36.9461V140.417H39.6278ZM40.4635 140.417V145.964H39.515V140.417H40.4635ZM36.7154 140.417H37.6691L37.5255 143.093C37.5016 143.507 37.4623 143.873 37.4076 144.19C37.3563 144.505 37.2845 144.775 37.1922 145.001C37.1034 145.226 36.9906 145.411 36.8538 145.554C36.7205 145.694 36.5599 145.799 36.3718 145.867C36.1838 145.932 35.9668 145.964 35.7207 145.964H35.4233V145.129L35.6284 145.113C35.7754 145.103 35.9001 145.069 36.0027 145.011C36.1086 144.953 36.1975 144.867 36.2693 144.754C36.3411 144.638 36.3992 144.489 36.4436 144.308C36.4915 144.127 36.5274 143.912 36.5513 143.662C36.5787 143.413 36.5992 143.122 36.6128 142.791L36.7154 140.417Z" fill="#0066BB"/>
<path d="M43.017 144.462L45.5756 140.417H46.5292V145.964H45.5756V141.919L43.017 145.964H42.0735V140.417H43.017V144.462Z" fill="#0066BB"/>
<path d="M50.1236 143.314H49.1032V142.729H50.0467C50.3099 142.729 50.5184 142.697 50.6722 142.632C50.826 142.563 50.9354 142.469 51.0004 142.35C51.0653 142.23 51.0978 142.09 51.0978 141.929C51.0978 141.786 51.0602 141.651 50.985 141.524C50.9132 141.394 50.797 141.29 50.6363 141.211C50.4756 141.129 50.2603 141.088 49.9903 141.088C49.7715 141.088 49.5732 141.128 49.3955 141.206C49.2177 141.281 49.0759 141.386 48.9699 141.519C48.8673 141.649 48.8161 141.796 48.8161 141.96H47.8675C47.8675 141.622 47.9632 141.331 48.1546 141.088C48.3495 140.842 48.6076 140.652 48.9289 140.519C49.2536 140.386 49.6074 140.319 49.9903 140.319C50.3116 140.319 50.5987 140.355 50.8517 140.427C51.108 140.495 51.3251 140.598 51.5028 140.735C51.6806 140.868 51.8156 141.035 51.9079 141.237C52.0036 141.435 52.0515 141.666 52.0515 141.929C52.0515 142.117 52.007 142.295 51.9182 142.462C51.8293 142.63 51.7011 142.779 51.5336 142.909C51.3661 143.035 51.1627 143.134 50.9234 143.206C50.6876 143.278 50.421 143.314 50.1236 143.314ZM49.1032 142.955H50.1236C50.4551 142.955 50.7474 142.987 51.0004 143.052C51.2533 143.114 51.4652 143.206 51.6362 143.329C51.8071 143.452 51.9353 143.604 52.0207 143.785C52.1096 143.963 52.154 144.168 52.154 144.401C52.154 144.66 52.101 144.895 51.9951 145.103C51.8925 145.308 51.7455 145.483 51.5541 145.626C51.3627 145.77 51.1337 145.879 50.867 145.954C50.6038 146.029 50.3116 146.067 49.9903 146.067C49.6313 146.067 49.2827 146.006 48.9443 145.882C48.6059 145.759 48.3273 145.57 48.1085 145.313C47.8897 145.054 47.7803 144.724 47.7803 144.324H48.7289C48.7289 144.491 48.7819 144.65 48.8879 144.801C48.9938 144.951 49.1408 145.072 49.3288 145.165C49.5202 145.257 49.7407 145.303 49.9903 145.303C50.2569 145.303 50.4791 145.262 50.6568 145.18C50.8346 145.098 50.9679 144.989 51.0568 144.852C51.149 144.715 51.1952 144.566 51.1952 144.406C51.1952 144.197 51.1542 144.03 51.0721 143.903C50.9901 143.777 50.8636 143.684 50.6927 143.626C50.5252 143.565 50.3099 143.534 50.0467 143.534H49.1032V142.955Z" fill="#0066BB"/>
<path d="M54.4101 144.462L56.9687 140.417H57.9224V145.964H56.9687V141.919L54.4101 145.964H53.4666V140.417H54.4101V144.462Z" fill="#0066BB"/>
<path d="M60.3938 141.483V148.097H59.4401V140.417H60.3117L60.3938 141.483ZM64.1317 143.144V143.252C64.1317 143.655 64.0838 144.03 63.9881 144.375C63.8924 144.717 63.7522 145.014 63.5676 145.267C63.3865 145.52 63.1626 145.717 62.8959 145.857C62.6293 145.997 62.3234 146.067 61.9781 146.067C61.6261 146.067 61.315 146.009 61.0449 145.893C60.7749 145.776 60.5459 145.607 60.3579 145.385C60.1699 145.163 60.0195 144.896 59.9067 144.585C59.7973 144.274 59.7221 143.924 59.6811 143.534V142.96C59.7221 142.55 59.799 142.182 59.9118 141.857C60.0246 141.533 60.1733 141.256 60.3579 141.027C60.5459 140.794 60.7732 140.618 61.0398 140.499C61.3064 140.376 61.6141 140.314 61.9628 140.314C62.3114 140.314 62.6208 140.382 62.8908 140.519C63.1609 140.652 63.3882 140.844 63.5728 141.093C63.7574 141.343 63.8958 141.642 63.9881 141.991C64.0838 142.336 64.1317 142.721 64.1317 143.144ZM63.178 143.252V143.144C63.178 142.868 63.1489 142.608 63.0908 142.365C63.0327 142.119 62.9421 141.904 62.819 141.719C62.6994 141.531 62.5456 141.384 62.3576 141.278C62.1696 141.169 61.9457 141.114 61.6859 141.114C61.4466 141.114 61.2381 141.155 61.0603 141.237C60.886 141.319 60.7373 141.43 60.6142 141.57C60.4912 141.707 60.3904 141.864 60.3117 142.042C60.2365 142.216 60.1801 142.398 60.1425 142.586V143.914C60.2109 144.153 60.3066 144.378 60.4297 144.59C60.5527 144.799 60.7168 144.968 60.9219 145.098C61.127 145.224 61.3851 145.288 61.6961 145.288C61.9525 145.288 62.173 145.235 62.3576 145.129C62.5456 145.019 62.6994 144.871 62.819 144.683C62.9421 144.495 63.0327 144.279 63.0908 144.037C63.1489 143.79 63.178 143.529 63.178 143.252Z" fill="#0066BB"/>
<path d="M65.0905 143.252V143.134C65.0905 142.734 65.1486 142.363 65.2648 142.022C65.381 141.676 65.5485 141.377 65.7673 141.124C65.9861 140.868 66.251 140.67 66.562 140.529C66.8731 140.386 67.2218 140.314 67.608 140.314C67.9977 140.314 68.3481 140.386 68.6592 140.529C68.9736 140.67 69.2403 140.868 69.459 141.124C69.6812 141.377 69.8504 141.676 69.9666 142.022C70.0829 142.363 70.141 142.734 70.141 143.134V143.252C70.141 143.652 70.0829 144.023 69.9666 144.365C69.8504 144.707 69.6812 145.006 69.459 145.262C69.2403 145.515 68.9753 145.713 68.6643 145.857C68.3566 145.997 68.008 146.067 67.6183 146.067C67.2286 146.067 66.8782 145.997 66.5672 145.857C66.2561 145.713 65.9895 145.515 65.7673 145.262C65.5485 145.006 65.381 144.707 65.2648 144.365C65.1486 144.023 65.0905 143.652 65.0905 143.252ZM66.039 143.134V143.252C66.039 143.529 66.0715 143.79 66.1365 144.037C66.2014 144.279 66.2988 144.495 66.4287 144.683C66.562 144.871 66.7278 145.019 66.9261 145.129C67.1243 145.235 67.3551 145.288 67.6183 145.288C67.8781 145.288 68.1054 145.235 68.3002 145.129C68.4985 145.019 68.6626 144.871 68.7925 144.683C68.9224 144.495 69.0198 144.279 69.0847 144.037C69.1531 143.79 69.1873 143.529 69.1873 143.252V143.134C69.1873 142.861 69.1531 142.603 69.0847 142.36C69.0198 142.114 68.9207 141.897 68.7873 141.709C68.6574 141.517 68.4934 141.367 68.2951 141.258C68.1003 141.148 67.8712 141.093 67.608 141.093C67.3482 141.093 67.1192 141.148 66.921 141.258C66.7261 141.367 66.562 141.517 66.4287 141.709C66.2988 141.897 66.2014 142.114 66.1365 142.36C66.0715 142.603 66.039 142.861 66.039 143.134Z" fill="#0066BB"/>
<path d="M73.9353 143.524H72.115L72.1048 142.765H73.5917C73.8857 142.765 74.1301 142.736 74.3249 142.678C74.5232 142.62 74.6719 142.533 74.771 142.416C74.8702 142.3 74.9197 142.157 74.9197 141.986C74.9197 141.852 74.8907 141.736 74.8326 141.637C74.7779 141.534 74.6941 141.451 74.5813 141.386C74.4685 141.317 74.3284 141.268 74.1609 141.237C73.9968 141.203 73.8037 141.186 73.5815 141.186H72.3663V145.964H71.4177V140.417H73.5815C73.9336 140.417 74.2497 140.447 74.53 140.509C74.8138 140.57 75.0547 140.664 75.253 140.791C75.4547 140.914 75.6085 141.071 75.7145 141.263C75.8204 141.454 75.8734 141.68 75.8734 141.939C75.8734 142.107 75.8392 142.266 75.7709 142.416C75.7025 142.567 75.6017 142.7 75.4684 142.816C75.335 142.932 75.171 143.028 74.9761 143.103C74.7813 143.175 74.5574 143.221 74.3044 143.242L73.9353 143.524ZM73.9353 145.964H71.7715L72.2432 145.195H73.9353C74.1985 145.195 74.4172 145.163 74.5916 145.098C74.7659 145.03 74.8958 144.934 74.9813 144.811C75.0701 144.684 75.1146 144.534 75.1146 144.36C75.1146 144.185 75.0701 144.037 74.9813 143.914C74.8958 143.787 74.7659 143.691 74.5916 143.626C74.4172 143.558 74.1985 143.524 73.9353 143.524H72.4945L72.5047 142.765H74.3044L74.648 143.052C74.9522 143.076 75.2103 143.151 75.4222 143.278C75.6341 143.404 75.7948 143.565 75.9042 143.76C76.0136 143.951 76.0683 144.16 76.0683 144.385C76.0683 144.645 76.0187 144.874 75.9196 145.072C75.8239 145.271 75.6837 145.436 75.4991 145.57C75.3145 145.7 75.0906 145.799 74.8274 145.867C74.5642 145.932 74.2668 145.964 73.9353 145.964Z" fill="#0066BB"/>
<path d="M80.6111 145.016V142.16C80.6111 141.941 80.5667 141.751 80.4778 141.591C80.3924 141.427 80.2625 141.3 80.0882 141.211C79.9138 141.123 79.6985 141.078 79.4421 141.078C79.2028 141.078 78.9926 141.119 78.8114 141.201C78.6337 141.283 78.4935 141.391 78.391 141.524C78.2919 141.657 78.2423 141.801 78.2423 141.955H77.2937C77.2937 141.757 77.345 141.56 77.4475 141.365C77.5501 141.17 77.6971 140.994 77.8885 140.837C78.0833 140.676 78.3158 140.55 78.5858 140.458C78.8593 140.362 79.1635 140.314 79.4985 140.314C79.9019 140.314 80.2574 140.382 80.565 140.519C80.8761 140.656 81.1188 140.863 81.2931 141.14C81.4708 141.413 81.5597 141.757 81.5597 142.17V144.754C81.5597 144.939 81.5751 145.136 81.6059 145.344C81.64 145.553 81.6896 145.732 81.7546 145.882V145.964H80.765C80.7171 145.855 80.6795 145.71 80.6522 145.529C80.6248 145.344 80.6111 145.173 80.6111 145.016ZM80.7752 142.601L80.7855 143.267H79.8267C79.5566 143.267 79.3156 143.29 79.1037 143.334C78.8918 143.375 78.714 143.438 78.5704 143.524C78.4269 143.609 78.3175 143.717 78.2423 143.847C78.1671 143.973 78.1295 144.122 78.1295 144.293C78.1295 144.467 78.1688 144.626 78.2474 144.77C78.326 144.913 78.444 145.028 78.6012 145.113C78.7619 145.195 78.9584 145.236 79.1909 145.236C79.4814 145.236 79.7378 145.175 79.96 145.052C80.1822 144.929 80.3582 144.778 80.4881 144.601C80.6214 144.423 80.6932 144.25 80.7034 144.083L81.1085 144.539C81.0846 144.683 81.0196 144.842 80.9137 145.016C80.8077 145.19 80.6658 145.358 80.4881 145.518C80.3138 145.676 80.1052 145.807 79.8625 145.913C79.6233 146.016 79.3532 146.067 79.0524 146.067C78.6764 146.067 78.3465 145.994 78.0628 145.847C77.7825 145.7 77.5638 145.503 77.4065 145.257C77.2527 145.007 77.1758 144.729 77.1758 144.421C77.1758 144.124 77.2339 143.862 77.3501 143.637C77.4663 143.408 77.6338 143.218 77.8526 143.067C78.0714 142.914 78.3346 142.797 78.6422 142.719C78.9499 142.64 79.2934 142.601 79.6728 142.601H80.7752Z" fill="#0066BB"/>
<path d="M86.8153 142.821V143.59H83.8824V142.821H86.8153ZM84.0824 140.417V145.964H83.1338V140.417H84.0824ZM87.5844 140.417V145.964H86.6307V140.417H87.5844Z" fill="#0066BB"/>
<path d="M92.8759 142.821V143.59H89.943V142.821H92.8759ZM90.143 140.417V145.964H89.1944V140.417H90.143ZM93.645 140.417V145.964H92.6913V140.417H93.645Z" fill="#0066BB"/>
<path d="M98.4443 145.016V142.16C98.4443 141.941 98.3998 141.751 98.311 141.591C98.2255 141.427 98.0956 141.3 97.9213 141.211C97.747 141.123 97.5316 141.078 97.2752 141.078C97.036 141.078 96.8257 141.119 96.6446 141.201C96.4668 141.283 96.3267 141.391 96.2241 141.524C96.125 141.657 96.0754 141.801 96.0754 141.955H95.1268C95.1268 141.757 95.1781 141.56 95.2807 141.365C95.3832 141.17 95.5302 140.994 95.7216 140.837C95.9165 140.676 96.1489 140.55 96.419 140.458C96.6924 140.362 96.9966 140.314 97.3316 140.314C97.735 140.314 98.0905 140.382 98.3981 140.519C98.7092 140.656 98.9519 140.863 99.1262 141.14C99.304 141.413 99.3929 141.757 99.3929 142.17V144.754C99.3929 144.939 99.4082 145.136 99.439 145.344C99.4732 145.553 99.5227 145.732 99.5877 145.882V145.964H98.5981C98.5503 145.855 98.5126 145.71 98.4853 145.529C98.458 145.344 98.4443 145.173 98.4443 145.016ZM98.6084 142.601L98.6186 143.267H97.6598C97.3897 143.267 97.1488 143.29 96.9368 143.334C96.7249 143.375 96.5471 143.438 96.4036 143.524C96.26 143.609 96.1506 143.717 96.0754 143.847C96.0002 143.973 95.9626 144.122 95.9626 144.293C95.9626 144.467 96.0019 144.626 96.0805 144.77C96.1592 144.913 96.2771 145.028 96.4343 145.113C96.595 145.195 96.7915 145.236 97.024 145.236C97.3145 145.236 97.5709 145.175 97.7931 145.052C98.0153 144.929 98.1913 144.778 98.3212 144.601C98.4545 144.423 98.5263 144.25 98.5366 144.083L98.9416 144.539C98.9177 144.683 98.8528 144.842 98.7468 145.016C98.6408 145.19 98.499 145.358 98.3212 145.518C98.1469 145.676 97.9384 145.807 97.6957 145.913C97.4564 146.016 97.1864 146.067 96.8856 146.067C96.5095 146.067 96.1797 145.994 95.896 145.847C95.6157 145.7 95.3969 145.503 95.2397 145.257C95.0858 145.007 95.0089 144.729 95.0089 144.421C95.0089 144.124 95.067 143.862 95.1833 143.637C95.2995 143.408 95.467 143.218 95.6857 143.067C95.9045 142.914 96.1677 142.797 96.4754 142.719C96.783 142.64 97.1265 142.601 97.506 142.601H98.6084Z" fill="#0066BB"/>
<path d="M102.008 143.319H103.033L101.428 145.964H100.403L102.008 143.319ZM102.803 140.417H105.12V145.964H104.172V141.186H102.803C102.533 141.186 102.312 141.232 102.141 141.324C101.97 141.413 101.845 141.529 101.767 141.673C101.688 141.816 101.649 141.965 101.649 142.119C101.649 142.269 101.685 142.415 101.757 142.555C101.828 142.691 101.941 142.804 102.095 142.893C102.249 142.982 102.447 143.026 102.69 143.026H104.428V143.806H102.69C102.372 143.806 102.09 143.763 101.844 143.678C101.598 143.592 101.389 143.474 101.218 143.324C101.047 143.17 100.917 142.991 100.829 142.785C100.74 142.577 100.695 142.351 100.695 142.109C100.695 141.866 100.741 141.642 100.834 141.437C100.929 141.232 101.066 141.052 101.244 140.899C101.425 140.745 101.645 140.627 101.905 140.545C102.168 140.459 102.468 140.417 102.803 140.417Z" fill="#0066BB"/>
<path d="M1.76593 150.918V156.465H0.817355V150.918H1.76593ZM5.40639 150.918L2.77603 154.097H1.44803L1.30446 153.266H2.39147L4.25272 150.918H5.40639ZM4.38603 156.465L2.34532 153.953L2.95549 153.266L5.59097 156.465H4.38603Z" fill="#0066BB"/>
<path d="M14.1907 153.753V153.635C14.1907 153.235 14.2488 152.864 14.365 152.522C14.4812 152.177 14.6487 151.878 14.8675 151.625C15.0863 151.369 15.3512 151.171 15.6622 151.03C15.9733 150.887 16.322 150.815 16.7082 150.815C17.0979 150.815 17.4483 150.887 17.7593 151.03C18.0738 151.171 18.3405 151.369 18.5592 151.625C18.7814 151.878 18.9506 152.177 19.0668 152.522C19.1831 152.864 19.2412 153.235 19.2412 153.635V153.753C19.2412 154.153 19.1831 154.524 19.0668 154.866C18.9506 155.207 18.7814 155.507 18.5592 155.763C18.3405 156.016 18.0755 156.214 17.7645 156.358C17.4568 156.498 17.1082 156.568 16.7185 156.568C16.3288 156.568 15.9784 156.498 15.6674 156.358C15.3563 156.214 15.0897 156.016 14.8675 155.763C14.6487 155.507 14.4812 155.207 14.365 154.866C14.2488 154.524 14.1907 154.153 14.1907 153.753ZM15.1392 153.635V153.753C15.1392 154.03 15.1717 154.291 15.2367 154.538C15.3016 154.78 15.399 154.996 15.5289 155.184C15.6622 155.372 15.828 155.52 16.0263 155.63C16.2245 155.736 16.4553 155.789 16.7185 155.789C16.9783 155.789 17.2056 155.736 17.4004 155.63C17.5987 155.52 17.7628 155.372 17.8927 155.184C18.0226 154.996 18.12 154.78 18.1849 154.538C18.2533 154.291 18.2875 154.03 18.2875 153.753V153.635C18.2875 153.362 18.2533 153.104 18.1849 152.861C18.12 152.615 18.0208 152.398 17.8875 152.21C17.7576 152.018 17.5936 151.868 17.3953 151.758C17.2005 151.649 16.9714 151.594 16.7082 151.594C16.4484 151.594 16.2194 151.649 16.0212 151.758C15.8263 151.868 15.6622 152.018 15.5289 152.21C15.399 152.398 15.3016 152.615 15.2367 152.861C15.1717 153.104 15.1392 153.362 15.1392 153.635Z" fill="#0066BB"/>
<path d="M31.7582 155.204L33.6451 150.918H34.5578L32.0864 156.465H31.43L28.9689 150.918H29.8816L31.7582 155.204ZM29.6047 150.918V156.465H28.6561V150.918H29.6047ZM33.8809 156.465V150.918H34.8346V156.465H33.8809Z" fill="#0066BB"/>
<path d="M48.1977 150.918V151.702H45.393V150.918H48.1977ZM45.5315 150.918V156.465H44.5829V150.918H45.5315ZM49.0386 150.918V156.465H48.0849V150.918H49.0386Z" fill="#0066BB"/>
<path d="M61.971 155.517V152.661C61.971 152.442 61.9265 152.252 61.8376 152.092C61.7522 151.928 61.6223 151.801 61.448 151.712C61.2736 151.623 61.0583 151.579 60.8019 151.579C60.5626 151.579 60.3524 151.62 60.1712 151.702C59.9935 151.784 59.8533 151.892 59.7508 152.025C59.6517 152.158 59.6021 152.302 59.6021 152.456H58.6535C58.6535 152.258 58.7048 152.061 58.8073 151.866C58.9099 151.671 59.0569 151.495 59.2483 151.338C59.4431 151.177 59.6756 151.051 59.9456 150.959C60.2191 150.863 60.5233 150.815 60.8583 150.815C61.2617 150.815 61.6172 150.883 61.9248 151.02C62.2359 151.157 62.4786 151.364 62.6529 151.641C62.8307 151.914 62.9195 152.258 62.9195 152.671V155.255C62.9195 155.44 62.9349 155.636 62.9657 155.845C62.9999 156.054 63.0494 156.233 63.1144 156.383V156.465H62.1248C62.0769 156.356 62.0393 156.211 62.012 156.03C61.9846 155.845 61.971 155.674 61.971 155.517ZM62.135 153.102L62.1453 153.768H61.1865C60.9164 153.768 60.6754 153.791 60.4635 153.835C60.2516 153.876 60.0738 153.939 59.9302 154.025C59.7867 154.11 59.6773 154.218 59.6021 154.348C59.5269 154.474 59.4893 154.623 59.4893 154.794C59.4893 154.968 59.5286 155.127 59.6072 155.271C59.6858 155.414 59.8038 155.529 59.961 155.614C60.1217 155.696 60.3182 155.737 60.5507 155.737C60.8412 155.737 61.0976 155.676 61.3198 155.553C61.542 155.43 61.718 155.279 61.8479 155.102C61.9812 154.924 62.053 154.751 62.0632 154.584L62.4683 155.04C62.4444 155.184 62.3794 155.343 62.2735 155.517C62.1675 155.691 62.0256 155.859 61.8479 156.019C61.6736 156.177 61.4651 156.308 61.2224 156.414C60.9831 156.517 60.713 156.568 60.4122 156.568C60.0362 156.568 59.7063 156.494 59.4226 156.347C59.1423 156.2 58.9236 156.004 58.7663 155.758C58.6125 155.508 58.5356 155.23 58.5356 154.922C58.5356 154.625 58.5937 154.363 58.7099 154.138C58.8261 153.909 58.9936 153.719 59.2124 153.568C59.4312 153.415 59.6944 153.298 60.002 153.22C60.3097 153.141 60.6532 153.102 61.0326 153.102H62.135Z" fill="#0066BB"/>
<path d="M76.3134 153.322V154.091H73.3805V153.322H76.3134ZM73.5804 150.918V156.465H72.6319V150.918H73.5804ZM77.0825 150.918V156.465H76.1288V150.918H77.0825Z" fill="#0066BB"/>
<path d="M87.7741 154.963L90.3327 150.918H91.2864V156.465H90.3327V152.42L87.7741 156.465H86.8307V150.918H87.7741V154.963Z" fill="#0066BB"/>
<path d="M102.07 153.82H103.096L101.491 156.465H100.466L102.07 153.82ZM102.865 150.918H105.183V156.465H104.234V151.687H102.865C102.595 151.687 102.375 151.733 102.204 151.825C102.033 151.914 101.908 152.03 101.829 152.174C101.751 152.317 101.711 152.466 101.711 152.62C101.711 152.77 101.747 152.916 101.819 153.056C101.891 153.192 102.004 153.305 102.158 153.394C102.311 153.483 102.51 153.527 102.752 153.527H104.491V154.307H102.752C102.434 154.307 102.152 154.264 101.906 154.179C101.66 154.093 101.452 153.975 101.281 153.825C101.11 153.671 100.98 153.492 100.891 153.286C100.802 153.078 100.758 152.852 100.758 152.61C100.758 152.367 100.804 152.143 100.896 151.938C100.992 151.733 101.129 151.553 101.306 151.4C101.488 151.246 101.708 151.128 101.968 151.046C102.231 150.96 102.53 150.918 102.865 150.918Z" fill="#0066BB"/>
<path d="M97.0842 121.198C97.5738 122.583 98.8948 123.576 100.448 123.576C102 123.576 103.321 122.583 103.811 121.198H102.434C102.145 122.014 101.367 122.599 100.452 122.599C99.5377 122.599 98.7595 122.014 98.4711 121.198H97.0842Z" fill="#EF8C10"/>
<path d="M95.8954 124.368H97.8767V131.765L103.028 124.369V124.368H105.009V135.265H103.028V127.869L97.8767 135.265H95.8954V124.368Z" fill="#EF8C10"/>
<path fill-rule="evenodd" clip-rule="evenodd" d="M89.456 135.265C92.4652 135.265 94.9046 132.826 94.9046 129.817C94.9046 126.808 92.4652 124.368 89.456 124.368C86.4469 124.368 84.0074 126.808 84.0074 129.817C84.0074 132.826 86.4469 135.265 89.456 135.265ZM89.5551 133.086C91.4153 133.086 92.9233 131.578 92.9233 129.718C92.9233 127.858 91.4153 126.35 89.5551 126.35C87.6949 126.35 86.1869 127.858 86.1869 129.718C86.1869 131.578 87.6949 133.086 89.5551 133.086Z" fill="#EF8C10"/>
<path fill-rule="evenodd" clip-rule="evenodd" d="M72.3177 138.832H74.2991V134.176C75.2097 134.86 76.3416 135.265 77.5682 135.265C80.5774 135.265 83.0168 132.826 83.0168 129.817C83.0168 126.808 80.5774 124.368 77.5682 124.368C76.3416 124.368 75.2097 124.774 74.2991 125.458V124.368H72.3177V138.832ZM81.0355 129.916C81.0355 131.776 79.5275 133.284 77.6673 133.284C75.8071 133.284 74.2991 131.776 74.2991 129.916C74.2991 128.056 75.8071 126.548 77.6673 126.548C79.5275 126.548 81.0355 128.056 81.0355 129.916Z" fill="#EF8C10"/>
<path d="M68.355 135.265V126.35H71.327V124.368H63.2036V126.35H66.3737V135.265H68.355Z" fill="#EF8C10"/>
<path d="M62.1069 132.492C61.172 134.147 59.396 135.265 57.3589 135.265C54.3497 135.265 51.9103 132.826 51.9103 129.817C51.9103 126.808 54.3497 124.368 57.3589 124.368C59.4763 124.368 61.3115 125.576 62.2134 127.34H59.7855C59.1601 126.727 58.3036 126.35 57.3589 126.35C55.4439 126.35 53.8916 127.902 53.8916 129.817C53.8916 131.732 55.4439 133.284 57.3589 133.284C58.1971 133.284 58.9658 132.987 59.5653 132.492H62.1069Z" fill="#EF8C10"/>
<path fill-rule="evenodd" clip-rule="evenodd" d="M45.4711 135.265C48.4802 135.265 50.9197 132.826 50.9197 129.817C50.9197 126.808 48.4802 124.368 45.4711 124.368C42.4619 124.368 40.0225 126.808 40.0225 129.817C40.0225 132.826 42.4619 135.265 45.4711 135.265ZM45.4711 133.284C47.386 133.284 48.9383 131.732 48.9383 129.817C48.9383 127.902 47.386 126.35 45.4711 126.35C43.5561 126.35 42.0038 127.902 42.0038 129.817C42.0038 131.732 43.5561 133.284 45.4711 133.284Z" fill="#EF8C10"/>
<path d="M34.865 124.368L39.0764 135.265L39.0755 135.265H36.9524L34.1006 127.886L31.2488 135.265H29.1291L29.1252 135.264L33.0385 125.138L33.0381 125.137L33.3353 124.368H34.865Z" fill="#EF8C10"/>
<path d="M28.1346 124.368V135.265H26.1533V126.35H22.3888V135.265H20.4075V124.368H28.1346Z" fill="#EF8C10"/>
<path fill-rule="evenodd" clip-rule="evenodd" d="M19.3443 130.708C19.392 130.418 19.4168 130.12 19.4168 129.817C19.4168 126.808 16.9774 124.368 13.9683 124.368C10.9591 124.368 8.51965 126.808 8.51965 129.817C8.51965 132.826 10.9591 135.265 13.9683 135.265C15.923 135.265 17.6374 134.236 18.5988 132.69H15.9101C15.3561 133.065 14.6878 133.284 13.9683 133.284C12.3616 133.284 11.0101 132.191 10.6167 130.708H19.3443ZM13.9683 126.35C12.434 126.35 11.1325 127.346 10.6757 128.727H17.2608C16.804 127.346 15.5025 126.35 13.9683 126.35Z" fill="#EF8C10"/>
<path d="M8.5196 122.981V121H0.39624V122.981H3.56633V135.265H5.54764V122.981H8.5196Z" fill="#EF8C10"/>
<path fill-rule="evenodd" clip-rule="evenodd" d="M4 0C1.79083 0 0 1.79086 0 4V109C0 111.209 1.79083 113 4 113H102C104.209 113 106 111.209 106 109V4C106 1.79086 104.209 0 102 0H4ZM7 3C4.79083 3 3 4.79086 3 7V106C3 108.209 4.79089 110 7 110H99C101.209 110 103 108.209 103 106V7C103 4.79086 101.209 3 99 3H7Z" fill="#0066BB"/>
<path fill-rule="evenodd" clip-rule="evenodd" d="M53 52C76.196 52 95 46.8513 95 40.5C95 34.4961 78.1965 29.5667 56.7639 29.0456C75.4305 29.5043 90 33.3385 90 38C90 42.9706 73.4345 47 53 47C32.5655 47 16 42.9706 16 38C16 33.3401 30.5595 29.5069 49.217 29.046C27.7935 29.5697 11 34.4978 11 40.5C11 46.8513 29.804 52 53 52Z" fill="#0066BB"/>
<path fill-rule="evenodd" clip-rule="evenodd" d="M53 69C76.196 69 95 63.8513 95 57.5C95 51.1487 76.196 46 53 46C29.804 46 11 51.1487 11 57.5C11 63.8513 29.804 69 53 69ZM53 64C73.4345 64 90 59.9706 90 55C90 50.0294 73.4345 46 53 46C32.5655 46 16 50.0294 16 55C16 59.9706 32.5655 64 53 64Z" fill="#0066BB"/>
<path fill-rule="evenodd" clip-rule="evenodd" d="M53 87C76.196 87 95 81.8513 95 75.5C95 69.1487 76.196 64 53 64C29.804 64 11 69.1487 11 75.5C11 81.8513 29.804 87 53 87ZM53 82C73.4345 82 90 77.9706 90 73C90 68.0294 73.4345 64 53 64C32.5655 64 16 68.0294 16 73C16 77.9706 32.5655 82 53 82Z" fill="#0066BB"/>
<path d="M55.5 96C47 96 42.1082 93.5877 37 87.5C50.8666 89.0242 60.0739 88.8904 74 87C68.5 93 64.0001 96 55.5 96Z" fill="#EF8C10"/>
<path d="M29.5 69C48.9079 71.7689 59 72 78 68.5C78.2198 72.2198 78.1969 74.3018 77.5 78C59.5 81 49.8571 81.1134 32 79C30.4057 75.414 29.6156 73.2132 29.5 69Z" fill="#EF8C10"/>
<path d="M33 52C49.7311 54.091 58.6768 54.0747 74 52C75.7043 55.1125 76.3902 56.8633 77 60C58.6476 62.7234 48.3524 62.8132 30 60C30.342 57.7569 31.0502 55.948 33 52Z" fill="#EF8C10"/>
<path d="M35 12C40.271 15.892 42.4018 20.6066 42.3202 29.5C41.5 37 40.4959 41.2101 41 45L35 44C37.5833 28.4992 38.1133 20.8769 35 12Z" fill="#EF8C10"/>
<path d="M56.0001 7C52.6079 20.8585 51.9287 29.5036 55.5001 45.5C50.5192 45.5856 47.7767 45.4852 43 45C42.1341 26.8766 48.5001 12.5 56.0001 7Z" fill="#EF8C10"/>
<path d="M62 20C65.3074 27.608 66.8079 32.0565 68.5 40.5C71.3494 38.6565 72.767 36.9172 75 32.5C75.5 37.5 72.5 40 72.5 44.5C66.1683 45.3577 65.1841 45.1834 59 45.5C61.4185 35.3461 62.0005 29.7747 62 20Z" fill="#EF8C10"/>
</svg>
