<svg width="673" height="128" viewBox="0 0 673 128" fill="none" xmlns="http://www.w3.org/2000/svg">
<path fill-rule="evenodd" clip-rule="evenodd" d="M4 0C1.79086 0 0 1.79086 0 4V116C0 118.209 1.79086 120 4 120H108.566C110.776 120 112.566 118.209 112.566 116V4C112.566 1.79086 110.776 0 108.566 0H4ZM7.18584 3.18584C4.9767 3.18584 3.18584 4.9767 3.18584 7.18583V112.814C3.18584 115.023 4.9767 116.814 7.18584 116.814H105.381C107.59 116.814 109.381 115.023 109.381 112.814V7.18584C109.381 4.9767 107.59 3.18584 105.381 3.18584H7.18584Z" fill="#0066BB"/>
<path fill-rule="evenodd" clip-rule="evenodd" d="M56.2832 55.2696C80.916 55.2696 100.885 49.8019 100.885 43.0572C100.885 36.3389 81.0717 30.8876 56.5716 30.8451C78.1392 30.8828 95.5752 35.1473 95.5752 40.4024C95.5752 45.6808 77.9836 49.9599 56.2832 49.9599C34.5828 49.9599 16.9911 45.6808 16.9911 40.4024C16.9911 35.1552 34.3747 30.8956 55.8974 30.8453C31.4422 30.902 11.6814 36.3478 11.6814 43.0572C11.6814 49.8019 31.6503 55.2696 56.2832 55.2696Z" fill="#0066BB"/>
<path fill-rule="evenodd" clip-rule="evenodd" d="M56.2832 73.2743C80.916 73.2743 100.885 67.8066 100.885 61.0619C100.885 54.3436 81.0717 48.8923 56.5716 48.8498C78.1392 48.8875 95.5752 53.152 95.5752 58.4071C95.5752 63.6855 77.9836 67.9646 56.2832 67.9646C34.5828 67.9646 16.9911 63.6855 16.9911 58.4071C16.9911 53.1599 34.3747 48.9003 55.8974 48.85C31.4422 48.9067 11.6814 54.3525 11.6814 61.0619C11.6814 67.8066 31.6503 73.2743 56.2832 73.2743Z" fill="#0066BB"/>
<path fill-rule="evenodd" clip-rule="evenodd" d="M56.2832 92.3894C80.916 92.3894 100.885 86.9217 100.885 80.177C100.885 73.4323 80.916 67.9646 56.2832 67.9646C31.6503 67.9646 11.6814 73.4323 11.6814 80.177C11.6814 86.9217 31.6503 92.3894 56.2832 92.3894ZM56.2832 87.0796C77.9836 87.0796 95.5752 82.8006 95.5752 77.5221C95.5752 72.2436 77.9836 67.9646 56.2832 67.9646C34.5828 67.9646 16.9911 72.2436 16.9911 77.5221C16.9911 82.8006 34.5828 87.0796 56.2832 87.0796Z" fill="#0066BB"/>
<path d="M59 102C49.8108 102 44.5223 99.3197 39 92.5556C53.9909 94.2492 63.9448 94.1004 79 92C73.0541 98.6667 68.1892 102 59 102Z" fill="#EF8C10"/>
<path d="M31 73.5025C51.7558 76.2853 62.5488 76.5175 82.8683 73C83.1034 76.7384 83.0789 78.8308 82.3336 82.5474C63.0835 85.5624 52.7709 85.6764 33.6736 83.5524C31.9686 79.9485 31.1236 77.7367 31 73.5025Z" fill="#EF8C10"/>
<path d="M35.1915 55C52.9906 57.2827 62.5072 57.2649 78.8085 55C80.6216 58.3978 81.3513 60.3091 82 63.7333C62.4762 66.7063 51.5238 66.8044 32 63.7333C32.3638 61.2846 33.1172 59.3099 35.1915 55Z" fill="#EF8C10"/>
<path d="M37 13C42.7588 17.1279 45.0867 22.1282 44.9975 31.5606C44.1015 39.5152 43.0045 43.9804 43.5552 48L37 46.9394C39.8223 30.4992 40.4014 22.4149 37 13Z" fill="#EF8C10"/>
<path d="M59 7C55.6283 21.7479 54.9532 30.9478 58.503 47.9707C53.5522 48.0619 50.8264 47.955 46.0786 47.4387C45.2179 28.1522 51.5454 12.853 59 7Z" fill="#EF8C10"/>
<path d="M66.1763 21C69.6781 29.0555 71.2668 33.7657 73.0584 42.7059C76.0753 40.7539 77.5763 38.9124 79.9405 34.2353C80.4699 39.5294 77.2935 42.1765 77.2935 46.9412C70.5897 47.8493 69.5476 47.6648 63 48C65.5607 37.2488 66.1768 31.3496 66.1763 21Z" fill="#EF8C10"/>
<path d="M129.59 118.253C130.376 118.253 131.103 118.093 131.769 117.773C132.436 117.453 132.984 117.014 133.412 116.457C133.841 115.887 134.085 115.241 134.145 114.518H137.288C137.228 115.656 136.841 116.717 136.127 117.702C135.425 118.674 134.502 119.462 133.359 120.067C132.216 120.66 130.96 120.957 129.59 120.957C128.138 120.957 126.87 120.702 125.786 120.192C124.715 119.682 123.822 118.982 123.107 118.093C122.405 117.204 121.875 116.184 121.518 115.034C121.173 113.872 121 112.644 121 111.352V110.605C121 109.312 121.173 108.091 121.518 106.941C121.875 105.779 122.405 104.753 123.107 103.864C123.822 102.974 124.715 102.275 125.786 101.765C126.87 101.255 128.138 101 129.59 101C131.103 101 132.424 101.308 133.555 101.925C134.686 102.53 135.573 103.36 136.216 104.415C136.871 105.458 137.228 106.644 137.288 107.972H134.145C134.085 107.178 133.859 106.46 133.466 105.82C133.085 105.18 132.561 104.67 131.894 104.291C131.239 103.899 130.471 103.704 129.59 103.704C128.578 103.704 127.727 103.905 127.037 104.308C126.358 104.7 125.816 105.233 125.411 105.909C125.018 106.573 124.733 107.314 124.554 108.132C124.387 108.939 124.304 109.763 124.304 110.605V111.352C124.304 112.194 124.387 113.024 124.554 113.842C124.721 114.66 125.001 115.401 125.393 116.065C125.798 116.729 126.34 117.263 127.019 117.666C127.709 118.057 128.566 118.253 129.59 118.253Z" fill="#0066BB"/>
<path d="M153.879 101.356V104.077H144.11V101.356H153.879ZM144.592 101.356V120.601H141.288V101.356H144.592ZM156.808 101.356V120.601H153.486V101.356H156.808Z" fill="#0066BB"/>
<path d="M170.131 120.957C168.786 120.957 167.566 120.731 166.47 120.281C165.387 119.818 164.452 119.172 163.666 118.342C162.892 117.512 162.297 116.528 161.88 115.389C161.464 114.251 161.255 113.006 161.255 111.654V110.907C161.255 109.342 161.487 107.949 161.952 106.727C162.416 105.494 163.047 104.451 163.845 103.597C164.643 102.743 165.548 102.097 166.56 101.658C167.572 101.219 168.619 101 169.703 101C171.084 101 172.275 101.237 173.275 101.711C174.287 102.186 175.114 102.85 175.757 103.704C176.4 104.545 176.876 105.542 177.186 106.692C177.496 107.83 177.65 109.075 177.65 110.427V111.903H163.22V109.217H174.346V108.968C174.299 108.115 174.12 107.285 173.811 106.478C173.513 105.672 173.037 105.008 172.382 104.486C171.727 103.964 170.834 103.704 169.703 103.704C168.953 103.704 168.262 103.864 167.631 104.184C167 104.492 166.458 104.955 166.006 105.571C165.553 106.188 165.202 106.941 164.952 107.83C164.702 108.719 164.577 109.745 164.577 110.907V111.654C164.577 112.567 164.702 113.427 164.952 114.233C165.214 115.028 165.589 115.727 166.077 116.332C166.577 116.937 167.179 117.411 167.881 117.755C168.596 118.099 169.405 118.271 170.31 118.271C171.477 118.271 172.465 118.034 173.275 117.559C174.084 117.085 174.793 116.451 175.4 115.656L177.4 117.239C176.984 117.868 176.454 118.466 175.811 119.036C175.168 119.605 174.376 120.067 173.435 120.423C172.507 120.779 171.405 120.957 170.131 120.957Z" fill="#0066BB"/>
<path d="M181.794 120.601V101.356H185.098V117.897H193.992V101.356H197.314V120.601H181.794ZM199.6 117.897L199.278 126.31H196.331V120.601H193.813V117.897H199.6Z" fill="#0066BB"/>
<path d="M206.761 115.389L215.673 101.356H218.995V120.601H215.673V106.567L206.761 120.601H203.475V101.356H206.761V115.389Z" fill="#0066BB"/>
<path d="M235.694 117.31V107.403C235.694 106.644 235.539 105.986 235.229 105.429C234.932 104.86 234.479 104.421 233.872 104.113C233.265 103.804 232.515 103.65 231.622 103.65C230.788 103.65 230.056 103.792 229.425 104.077C228.806 104.362 228.318 104.735 227.96 105.198C227.615 105.66 227.443 106.158 227.443 106.692H224.139C224.139 106.004 224.317 105.322 224.674 104.646C225.032 103.97 225.543 103.36 226.21 102.814C226.889 102.257 227.699 101.818 228.639 101.498C229.592 101.166 230.651 101 231.818 101C233.223 101 234.461 101.237 235.533 101.711C236.616 102.186 237.462 102.903 238.069 103.864C238.688 104.812 238.998 106.004 238.998 107.439V116.403C238.998 117.043 239.051 117.725 239.158 118.449C239.277 119.172 239.45 119.794 239.676 120.316V120.601H236.229C236.063 120.221 235.932 119.717 235.837 119.089C235.741 118.449 235.694 117.856 235.694 117.31ZM236.265 108.933L236.301 111.245H232.961C232.021 111.245 231.181 111.322 230.443 111.476C229.705 111.619 229.086 111.838 228.586 112.134C228.085 112.431 227.704 112.804 227.443 113.255C227.181 113.694 227.05 114.209 227.05 114.802C227.05 115.407 227.187 115.958 227.46 116.457C227.734 116.955 228.145 117.352 228.693 117.648C229.252 117.933 229.937 118.075 230.747 118.075C231.759 118.075 232.652 117.862 233.425 117.435C234.199 117.008 234.813 116.486 235.265 115.87C235.729 115.253 235.979 114.654 236.015 114.073L237.426 115.656C237.343 116.154 237.116 116.706 236.747 117.31C236.378 117.915 235.884 118.496 235.265 119.053C234.658 119.599 233.932 120.055 233.086 120.423C232.253 120.779 231.312 120.957 230.264 120.957C228.955 120.957 227.806 120.702 226.817 120.192C225.841 119.682 225.079 119 224.531 118.146C223.996 117.281 223.728 116.314 223.728 115.247C223.728 114.215 223.93 113.308 224.335 112.526C224.74 111.731 225.323 111.073 226.085 110.551C226.847 110.018 227.764 109.615 228.836 109.342C229.907 109.069 231.104 108.933 232.425 108.933H236.265Z" fill="#0066BB"/>
<path d="M257.107 101.356V104.077H247.767V101.356H257.107ZM260.018 101.356V120.601H256.714V101.356H260.018ZM246.963 101.356H250.285L249.785 110.64C249.701 112.075 249.565 113.344 249.374 114.447C249.195 115.538 248.945 116.474 248.624 117.257C248.314 118.04 247.921 118.68 247.445 119.178C246.981 119.664 246.421 120.026 245.766 120.263C245.112 120.488 244.355 120.601 243.498 120.601H242.462V117.702L243.177 117.648C243.689 117.613 244.123 117.494 244.481 117.292C244.85 117.091 245.159 116.794 245.409 116.403C245.659 116 245.862 115.484 246.016 114.856C246.183 114.227 246.308 113.48 246.391 112.615C246.487 111.749 246.558 110.741 246.606 109.591L246.963 101.356Z" fill="#0066BB"/>
<path d="M268.912 115.389L277.824 101.356H281.146V120.601H277.824V106.567L268.912 120.601H265.626V101.356H268.912V115.389Z" fill="#0066BB"/>
<path d="M293.666 111.405H290.111V109.377H293.398C294.314 109.377 295.041 109.265 295.577 109.04C296.112 108.802 296.493 108.476 296.72 108.061C296.946 107.646 297.059 107.16 297.059 106.603C297.059 106.105 296.928 105.636 296.666 105.198C296.416 104.747 296.011 104.385 295.451 104.113C294.892 103.828 294.142 103.686 293.201 103.686C292.439 103.686 291.749 103.822 291.129 104.095C290.51 104.356 290.016 104.717 289.647 105.18C289.29 105.63 289.111 106.14 289.111 106.709H285.807C285.807 105.536 286.141 104.528 286.807 103.686C287.486 102.832 288.385 102.174 289.504 101.711C290.635 101.249 291.868 101.018 293.201 101.018C294.32 101.018 295.321 101.142 296.202 101.391C297.095 101.628 297.851 101.984 298.47 102.458C299.089 102.921 299.559 103.502 299.881 104.202C300.214 104.889 300.381 105.69 300.381 106.603C300.381 107.255 300.226 107.872 299.916 108.453C299.607 109.034 299.16 109.549 298.577 110C297.993 110.439 297.285 110.783 296.452 111.032C295.63 111.281 294.701 111.405 293.666 111.405ZM290.111 110.16H293.666C294.82 110.16 295.838 110.273 296.72 110.498C297.601 110.711 298.339 111.032 298.934 111.458C299.529 111.885 299.976 112.413 300.274 113.042C300.583 113.658 300.738 114.37 300.738 115.176C300.738 116.077 300.553 116.889 300.184 117.613C299.827 118.324 299.315 118.929 298.648 119.427C297.982 119.925 297.184 120.304 296.255 120.565C295.338 120.826 294.32 120.957 293.201 120.957C291.951 120.957 290.737 120.743 289.558 120.316C288.379 119.889 287.409 119.231 286.647 118.342C285.885 117.441 285.504 116.296 285.504 114.909H288.808C288.808 115.49 288.992 116.042 289.361 116.563C289.73 117.085 290.242 117.506 290.897 117.826C291.564 118.146 292.332 118.306 293.201 118.306C294.13 118.306 294.904 118.164 295.523 117.879C296.142 117.595 296.606 117.215 296.916 116.741C297.237 116.267 297.398 115.751 297.398 115.194C297.398 114.47 297.255 113.889 296.97 113.451C296.684 113.012 296.243 112.692 295.648 112.49C295.065 112.277 294.314 112.17 293.398 112.17H290.111V110.16Z" fill="#0066BB"/>
<path d="M308.596 115.389L317.508 101.356H320.83V120.601H317.508V106.567L308.596 120.601H305.31V101.356H308.596V115.389Z" fill="#0066BB"/>
<path d="M329.438 105.055V128H326.116V101.356H329.152L329.438 105.055ZM342.458 110.818V111.192C342.458 112.591 342.291 113.889 341.958 115.087C341.624 116.273 341.136 117.304 340.493 118.182C339.862 119.059 339.082 119.741 338.154 120.227C337.225 120.713 336.159 120.957 334.957 120.957C333.73 120.957 332.647 120.755 331.706 120.352C330.766 119.949 329.968 119.362 329.313 118.591C328.658 117.82 328.134 116.895 327.741 115.816C327.36 114.737 327.098 113.522 326.956 112.17V110.178C327.098 108.755 327.366 107.48 327.759 106.354C328.152 105.227 328.67 104.267 329.313 103.472C329.968 102.666 330.76 102.055 331.688 101.64C332.617 101.213 333.689 101 334.903 101C336.118 101 337.195 101.237 338.136 101.711C339.076 102.174 339.868 102.838 340.511 103.704C341.154 104.569 341.636 105.607 341.958 106.816C342.291 108.014 342.458 109.348 342.458 110.818ZM339.136 111.192V110.818C339.136 109.858 339.035 108.957 338.832 108.115C338.63 107.261 338.314 106.514 337.886 105.874C337.469 105.221 336.933 104.711 336.278 104.344C335.623 103.964 334.844 103.775 333.939 103.775C333.105 103.775 332.379 103.917 331.76 104.202C331.153 104.486 330.635 104.872 330.206 105.358C329.777 105.832 329.426 106.377 329.152 106.994C328.89 107.599 328.694 108.227 328.563 108.879V113.486C328.801 114.316 329.134 115.099 329.563 115.834C329.992 116.557 330.563 117.144 331.278 117.595C331.992 118.034 332.891 118.253 333.974 118.253C334.867 118.253 335.635 118.069 336.278 117.702C336.933 117.322 337.469 116.806 337.886 116.154C338.314 115.502 338.63 114.755 338.832 113.913C339.035 113.059 339.136 112.152 339.136 111.192Z" fill="#0066BB"/>
<path d="M345.797 111.192V110.783C345.797 109.395 346 108.109 346.405 106.923C346.809 105.725 347.393 104.688 348.155 103.81C348.917 102.921 349.84 102.233 350.923 101.747C352.007 101.249 353.221 101 354.566 101C355.924 101 357.144 101.249 358.228 101.747C359.323 102.233 360.252 102.921 361.014 103.81C361.788 104.688 362.377 105.725 362.782 106.923C363.187 108.109 363.389 109.395 363.389 110.783V111.192C363.389 112.579 363.187 113.866 362.782 115.051C362.377 116.237 361.788 117.275 361.014 118.164C360.252 119.042 359.329 119.729 358.245 120.227C357.174 120.713 355.959 120.957 354.602 120.957C353.245 120.957 352.024 120.713 350.941 120.227C349.857 119.729 348.929 119.042 348.155 118.164C347.393 117.275 346.809 116.237 346.405 115.051C346 113.866 345.797 112.579 345.797 111.192ZM349.101 110.783V111.192C349.101 112.152 349.215 113.059 349.441 113.913C349.667 114.755 350.006 115.502 350.459 116.154C350.923 116.806 351.501 117.322 352.191 117.702C352.882 118.069 353.685 118.253 354.602 118.253C355.507 118.253 356.299 118.069 356.977 117.702C357.668 117.322 358.239 116.806 358.692 116.154C359.144 115.502 359.484 114.755 359.71 113.913C359.948 113.059 360.067 112.152 360.067 111.192V110.783C360.067 109.834 359.948 108.939 359.71 108.097C359.484 107.243 359.138 106.49 358.674 105.838C358.222 105.174 357.65 104.652 356.96 104.273C356.281 103.893 355.483 103.704 354.566 103.704C353.662 103.704 352.864 103.893 352.173 104.273C351.495 104.652 350.923 105.174 350.459 105.838C350.006 106.49 349.667 107.243 349.441 108.097C349.215 108.939 349.101 109.834 349.101 110.783Z" fill="#0066BB"/>
<path d="M376.605 112.134H370.265L370.229 109.502H375.408C376.432 109.502 377.284 109.401 377.962 109.2C378.653 108.998 379.171 108.696 379.516 108.292C379.861 107.889 380.034 107.391 380.034 106.798C380.034 106.336 379.933 105.933 379.73 105.589C379.54 105.233 379.248 104.943 378.855 104.717C378.462 104.48 377.974 104.308 377.391 104.202C376.819 104.083 376.147 104.024 375.373 104.024H371.14V120.601H367.836V101.356H375.373C376.599 101.356 377.7 101.462 378.677 101.676C379.665 101.889 380.504 102.215 381.195 102.654C381.897 103.081 382.433 103.626 382.802 104.291C383.171 104.955 383.356 105.737 383.356 106.638C383.356 107.219 383.237 107.771 382.999 108.292C382.761 108.814 382.409 109.277 381.945 109.68C381.481 110.083 380.909 110.415 380.23 110.676C379.552 110.925 378.772 111.085 377.891 111.156L376.605 112.134ZM376.605 120.601H369.068L370.711 117.933H376.605C377.522 117.933 378.284 117.82 378.891 117.595C379.498 117.358 379.951 117.026 380.248 116.599C380.558 116.16 380.713 115.638 380.713 115.034C380.713 114.429 380.558 113.913 380.248 113.486C379.951 113.047 379.498 112.715 378.891 112.49C378.284 112.253 377.522 112.134 376.605 112.134H371.586L371.622 109.502H377.891L379.087 110.498C380.147 110.581 381.046 110.842 381.784 111.281C382.522 111.719 383.082 112.277 383.463 112.953C383.844 113.617 384.035 114.34 384.035 115.123C384.035 116.024 383.862 116.818 383.517 117.506C383.183 118.194 382.695 118.769 382.052 119.231C381.409 119.682 380.629 120.026 379.713 120.263C378.796 120.488 377.76 120.601 376.605 120.601Z" fill="#0066BB"/>
<path d="M399.858 117.31V107.403C399.858 106.644 399.703 105.986 399.394 105.429C399.096 104.86 398.644 104.421 398.036 104.113C397.429 103.804 396.679 103.65 395.786 103.65C394.953 103.65 394.22 103.792 393.589 104.077C392.97 104.362 392.482 104.735 392.125 105.198C391.78 105.66 391.607 106.158 391.607 106.692H388.303C388.303 106.004 388.482 105.322 388.839 104.646C389.196 103.97 389.708 103.36 390.375 102.814C391.053 102.257 391.863 101.818 392.804 101.498C393.756 101.166 394.816 101 395.983 101C397.387 101 398.626 101.237 399.697 101.711C400.781 102.186 401.626 102.903 402.233 103.864C402.852 104.812 403.162 106.004 403.162 107.439V116.403C403.162 117.043 403.216 117.725 403.323 118.449C403.442 119.172 403.615 119.794 403.841 120.316V120.601H400.394C400.227 120.221 400.096 119.717 400.001 119.089C399.906 118.449 399.858 117.856 399.858 117.31ZM400.43 108.933L400.465 111.245H397.126C396.185 111.245 395.346 111.322 394.607 111.476C393.869 111.619 393.25 111.838 392.75 112.134C392.25 112.431 391.869 112.804 391.607 113.255C391.345 113.694 391.214 114.209 391.214 114.802C391.214 115.407 391.351 115.958 391.625 116.457C391.899 116.955 392.309 117.352 392.857 117.648C393.417 117.933 394.101 118.075 394.911 118.075C395.923 118.075 396.816 117.862 397.59 117.435C398.364 117.008 398.977 116.486 399.429 115.87C399.894 115.253 400.144 114.654 400.18 114.073L401.59 115.656C401.507 116.154 401.281 116.706 400.912 117.31C400.543 117.915 400.049 118.496 399.429 119.053C398.822 119.599 398.096 120.055 397.251 120.423C396.417 120.779 395.477 120.957 394.429 120.957C393.119 120.957 391.97 120.702 390.982 120.192C390.006 119.682 389.244 119 388.696 118.146C388.16 117.281 387.892 116.314 387.892 115.247C387.892 114.215 388.095 113.308 388.499 112.526C388.904 111.731 389.488 111.073 390.25 110.551C391.012 110.018 391.928 109.615 393 109.342C394.072 109.069 395.268 108.933 396.59 108.933H400.43Z" fill="#0066BB"/>
<path d="M421.468 109.698V112.366H411.252V109.698H421.468ZM411.949 101.356V120.601H408.645V101.356H411.949ZM424.147 101.356V120.601H420.825V101.356H424.147Z" fill="#0066BB"/>
<path d="M442.578 109.698V112.366H432.362V109.698H442.578ZM433.059 101.356V120.601H429.755V101.356H433.059ZM445.257 101.356V120.601H441.935V101.356H445.257Z" fill="#0066BB"/>
<path d="M461.973 117.31V107.403C461.973 106.644 461.819 105.986 461.509 105.429C461.211 104.86 460.759 104.421 460.152 104.113C459.544 103.804 458.794 103.65 457.901 103.65C457.068 103.65 456.336 103.792 455.705 104.077C455.086 104.362 454.597 104.735 454.24 105.198C453.895 105.66 453.722 106.158 453.722 106.692H450.418C450.418 106.004 450.597 105.322 450.954 104.646C451.311 103.97 451.823 103.36 452.49 102.814C453.169 102.257 453.978 101.818 454.919 101.498C455.871 101.166 456.931 101 458.098 101C459.503 101 460.741 101.237 461.813 101.711C462.896 102.186 463.741 102.903 464.349 103.864C464.968 104.812 465.277 106.004 465.277 107.439V116.403C465.277 117.043 465.331 117.725 465.438 118.449C465.557 119.172 465.73 119.794 465.956 120.316V120.601H462.509C462.342 120.221 462.211 119.717 462.116 119.089C462.021 118.449 461.973 117.856 461.973 117.31ZM462.545 108.933L462.581 111.245H459.241C458.3 111.245 457.461 111.322 456.723 111.476C455.984 111.619 455.365 111.838 454.865 112.134C454.365 112.431 453.984 112.804 453.722 113.255C453.46 113.694 453.329 114.209 453.329 114.802C453.329 115.407 453.466 115.958 453.74 116.457C454.014 116.955 454.425 117.352 454.972 117.648C455.532 117.933 456.217 118.075 457.026 118.075C458.038 118.075 458.931 117.862 459.705 117.435C460.479 117.008 461.092 116.486 461.545 115.87C462.009 115.253 462.259 114.654 462.295 114.073L463.706 115.656C463.622 116.154 463.396 116.706 463.027 117.31C462.658 117.915 462.164 118.496 461.545 119.053C460.938 119.599 460.211 120.055 459.366 120.423C458.532 120.779 457.592 120.957 456.544 120.957C455.234 120.957 454.085 120.702 453.097 120.192C452.121 119.682 451.359 119 450.811 118.146C450.275 117.281 450.008 116.314 450.008 115.247C450.008 114.215 450.21 113.308 450.615 112.526C451.02 111.731 451.603 111.073 452.365 110.551C453.127 110.018 454.044 109.615 455.115 109.342C456.187 109.069 457.383 108.933 458.705 108.933H462.545Z" fill="#0066BB"/>
<path d="M474.386 111.423H477.958L472.368 120.601H468.796L474.386 111.423ZM477.154 101.356H485.226V120.601H481.922V104.024H477.154C476.213 104.024 475.445 104.184 474.85 104.504C474.255 104.812 473.82 105.215 473.546 105.713C473.272 106.211 473.136 106.727 473.136 107.261C473.136 107.783 473.261 108.287 473.511 108.773C473.761 109.247 474.154 109.638 474.689 109.947C475.225 110.255 475.916 110.409 476.761 110.409H482.815V113.113H476.761C475.654 113.113 474.671 112.964 473.814 112.668C472.957 112.372 472.231 111.962 471.635 111.441C471.04 110.907 470.588 110.285 470.278 109.573C469.968 108.85 469.814 108.067 469.814 107.225C469.814 106.383 469.974 105.607 470.296 104.895C470.629 104.184 471.106 103.561 471.725 103.028C472.356 102.494 473.124 102.085 474.029 101.8C474.945 101.504 475.987 101.356 477.154 101.356Z" fill="#0066BB"/>
<path d="M503.211 101.356V120.601H499.907V101.356H503.211ZM515.891 101.356L506.729 112.383H502.104L501.604 109.502H505.39L511.873 101.356H515.891ZM512.337 120.601L505.229 111.885L507.354 109.502L516.534 120.601H512.337Z" fill="#0066BB"/>
<path d="M518.141 111.192V110.783C518.141 109.395 518.344 108.109 518.749 106.923C519.153 105.725 519.737 104.688 520.499 103.81C521.261 102.921 522.184 102.233 523.267 101.747C524.351 101.249 525.565 101 526.91 101C528.268 101 529.488 101.249 530.572 101.747C531.667 102.233 532.596 102.921 533.358 103.81C534.132 104.688 534.721 105.725 535.126 106.923C535.531 108.109 535.733 109.395 535.733 110.783V111.192C535.733 112.579 535.531 113.866 535.126 115.051C534.721 116.237 534.132 117.275 533.358 118.164C532.596 119.042 531.673 119.729 530.59 120.227C529.518 120.713 528.303 120.957 526.946 120.957C525.589 120.957 524.368 120.713 523.285 120.227C522.202 119.729 521.273 119.042 520.499 118.164C519.737 117.275 519.153 116.237 518.749 115.051C518.344 113.866 518.141 112.579 518.141 111.192ZM521.445 110.783V111.192C521.445 112.152 521.559 113.059 521.785 113.913C522.011 114.755 522.35 115.502 522.803 116.154C523.267 116.806 523.845 117.322 524.535 117.702C525.226 118.069 526.029 118.253 526.946 118.253C527.851 118.253 528.643 118.069 529.321 117.702C530.012 117.322 530.584 116.806 531.036 116.154C531.488 115.502 531.828 114.755 532.054 113.913C532.292 113.059 532.411 112.152 532.411 111.192V110.783C532.411 109.834 532.292 108.939 532.054 108.097C531.828 107.243 531.482 106.49 531.018 105.838C530.566 105.174 529.994 104.652 529.304 104.273C528.625 103.893 527.827 103.704 526.91 103.704C526.006 103.704 525.208 103.893 524.517 104.273C523.839 104.652 523.267 105.174 522.803 105.838C522.35 106.49 522.011 107.243 521.785 108.097C521.559 108.939 521.445 109.834 521.445 110.783Z" fill="#0066BB"/>
<path d="M550.985 116.225L557.557 101.356H560.736L552.128 120.601H549.842L541.269 101.356H544.448L550.985 116.225ZM543.484 101.356V120.601H540.18V101.356H543.484ZM558.379 120.601V101.356H561.701V120.601H558.379Z" fill="#0066BB"/>
<path d="M579.9 101.356V104.077H570.13V101.356H579.9ZM570.613 101.356V120.601H567.309V101.356H570.613ZM582.829 101.356V120.601H579.507V101.356H582.829Z" fill="#0066BB"/>
<path d="M599.527 117.31V107.403C599.527 106.644 599.372 105.986 599.063 105.429C598.765 104.86 598.313 104.421 597.705 104.113C597.098 103.804 596.348 103.65 595.455 103.65C594.622 103.65 593.889 103.792 593.258 104.077C592.639 104.362 592.151 104.735 591.794 105.198C591.449 105.66 591.276 106.158 591.276 106.692H587.972C587.972 106.004 588.151 105.322 588.508 104.646C588.865 103.97 589.377 103.36 590.044 102.814C590.722 102.257 591.532 101.818 592.473 101.498C593.425 101.166 594.485 101 595.652 101C597.057 101 598.295 101.237 599.366 101.711C600.45 102.186 601.295 102.903 601.902 103.864C602.522 104.812 602.831 106.004 602.831 107.439V116.403C602.831 117.043 602.885 117.725 602.992 118.449C603.111 119.172 603.284 119.794 603.51 120.316V120.601H600.063C599.896 120.221 599.765 119.717 599.67 119.089C599.575 118.449 599.527 117.856 599.527 117.31ZM600.099 108.933L600.134 111.245H596.795C595.854 111.245 595.015 111.322 594.276 111.476C593.538 111.619 592.919 111.838 592.419 112.134C591.919 112.431 591.538 112.804 591.276 113.255C591.014 113.694 590.883 114.209 590.883 114.802C590.883 115.407 591.02 115.958 591.294 116.457C591.568 116.955 591.979 117.352 592.526 117.648C593.086 117.933 593.77 118.075 594.58 118.075C595.592 118.075 596.485 117.862 597.259 117.435C598.033 117.008 598.646 116.486 599.099 115.87C599.563 115.253 599.813 114.654 599.849 114.073L601.26 115.656C601.176 116.154 600.95 116.706 600.581 117.31C600.212 117.915 599.718 118.496 599.099 119.053C598.491 119.599 597.765 120.055 596.92 120.423C596.086 120.779 595.146 120.957 594.098 120.957C592.788 120.957 591.639 120.702 590.651 120.192C589.675 119.682 588.913 119 588.365 118.146C587.829 117.281 587.561 116.314 587.561 115.247C587.561 114.215 587.764 113.308 588.169 112.526C588.573 111.731 589.157 111.073 589.919 110.551C590.681 110.018 591.598 109.615 592.669 109.342C593.741 109.069 594.937 108.933 596.259 108.933H600.099Z" fill="#0066BB"/>
<path d="M621.137 109.698V112.366H610.921V109.698H621.137ZM611.618 101.356V120.601H608.314V101.356H611.618ZM623.816 101.356V120.601H620.494V101.356H623.816Z" fill="#0066BB"/>
<path d="M632.71 115.389L641.622 101.356H644.944V120.601H641.622V106.567L632.71 120.601H629.424V101.356H632.71V115.389Z" fill="#0066BB"/>
<path d="M654.159 111.423H657.731L652.141 120.601H648.569L654.159 111.423ZM656.928 101.356H665V120.601H661.696V104.024H656.928C655.987 104.024 655.219 104.184 654.624 104.504C654.028 104.812 653.594 105.215 653.32 105.713C653.046 106.211 652.909 106.727 652.909 107.261C652.909 107.783 653.034 108.287 653.284 108.773C653.534 109.247 653.927 109.638 654.463 109.947C654.999 110.255 655.689 110.409 656.535 110.409H662.589V113.113H656.535C655.427 113.113 654.445 112.964 653.588 112.668C652.731 112.372 652.004 111.962 651.409 111.441C650.814 110.907 650.361 110.285 650.052 109.573C649.742 108.85 649.587 108.067 649.587 107.225C649.587 106.383 649.748 105.607 650.069 104.895C650.403 104.184 650.879 103.561 651.498 103.028C652.129 102.494 652.897 102.085 653.802 101.8C654.719 101.504 655.761 101.356 656.928 101.356Z" fill="#0066BB"/>
<path fill-rule="evenodd" clip-rule="evenodd" d="M586.5 75C601.688 75 614 62.6878 614 47.5C614 32.3122 601.688 20 586.5 20C571.312 20 559 32.3122 559 47.5C559 62.6878 571.312 75 586.5 75ZM587 64C596.389 64 604 56.3889 604 47C604 37.6111 596.389 30 587 30C577.611 30 570 37.6111 570 47C570 56.3889 577.611 64 587 64Z" fill="#EF8C10"/>
<path d="M480 75V30H495V20H454V30H470V75H480Z" fill="#EF8C10"/>
<path fill-rule="evenodd" clip-rule="evenodd" d="M500 93H510V69.502C514.596 72.9543 520.309 75 526.5 75C541.688 75 554 62.6878 554 47.5C554 32.3122 541.688 20 526.5 20C520.309 20 514.596 22.0457 510 25.498V20H500V93ZM544 48C544 57.3889 536.389 65 527 65C517.611 65 510 57.3889 510 48C510 38.6111 517.611 31 527 31C536.389 31 544 38.6111 544 48Z" fill="#EF8C10"/>
<path d="M416 75C430.135 75 442.367 66.8538 448.258 55H436.495C431.737 61.0871 424.325 65 416 65C401.641 65 390 53.3594 390 39C390 24.6406 401.641 13 416 13C424.773 13 432.531 17.3448 437.239 24H448.736C443.048 11.6068 430.529 3 416 3C396.118 3 380 19.1177 380 39C380 58.8823 396.118 75 416 75Z" fill="#EF8C10"/>
<path fill-rule="evenodd" clip-rule="evenodd" d="M347.5 75C362.688 75 375 62.6878 375 47.5C375 32.3122 362.688 20 347.5 20C332.312 20 320 32.3122 320 47.5C320 62.6878 332.312 75 347.5 75ZM347.5 65C357.165 65 365 57.165 365 47.5C365 37.835 357.165 30 347.5 30C337.835 30 330 37.835 330 47.5C330 57.165 337.835 65 347.5 65Z" fill="#EF8C10"/>
<path d="M293.969 20L315.225 74.9983L315.221 75H304.505L290.112 37.7567L275.718 75H265.019L265 74.9926L284.751 23.8866L284.749 23.8813L286.249 20H293.969Z" fill="#EF8C10"/>
<path d="M260 20V75H250V30H231V75H221V20H260Z" fill="#EF8C10"/>
<path fill-rule="evenodd" clip-rule="evenodd" d="M215.634 52C215.875 50.5357 216 49.0325 216 47.5C216 32.3122 203.688 20 188.5 20C173.312 20 161 32.3122 161 47.5C161 62.6878 173.312 75 188.5 75C198.366 75 207.019 69.8044 211.871 62H198.301C195.505 63.8938 192.132 65 188.5 65C180.391 65 173.57 59.4844 171.584 52H215.634ZM188.5 30C180.756 30 174.188 35.0295 171.882 42H205.118C202.813 35.0295 196.244 30 188.5 30Z" fill="#EF8C10"/>
<path d="M161 13V3H120V13H136V75H146V13H161Z" fill="#EF8C10"/>
<path d="M625 4C627.471 10.9911 634.138 16 641.976 16C649.813 16 656.481 10.9911 658.952 4H652C650.544 8.11832 646.617 11.0689 642 11.0689C637.383 11.0689 633.456 8.11832 632 4H625Z" fill="#EF8C10"/>
<path d="M619 20H629V57.3344L655 20.0044V20H665V75H655V37.6692L629 75H619V20Z" fill="#EF8C10"/>
</svg>
